
<svg role="img" viewBox="0 0 24 24" xmlns="http://www.w3.org/2000/svg"><title>GitHub icon</title><path fill="none" stroke="none" d="M12 0C8.68 0 8.42.01 7.14.07 5.86.14 4.81.33 3.9.76 2.99 1.2 2.24 1.92 1.8 2.83c-.43.91-.62 1.97-.69 3.24C.01 8.42 0 8.68 0 12s.01 3.58.07 4.86c.07 1.27.26 2.33.69 3.24.43.91 1.2 1.63 2.11 2.11.91.43 1.97.62 3.24.69C8.42 23.99 8.68 24 12 24s3.58-.01 4.86-.07c1.27-.07 2.33-.26 3.24-.69.91-.43 1.63-1.2 2.11-2.11.43-.91.62-1.97.69-3.24.07-1.28.07-1.53.07-4.86s-.01-3.58-.07-4.86c-.07-1.27-.26-2.33-.69-3.24-.43-.91-1.2-1.63-2.11-2.11C19.58.33 18.53.14 17.26.07 16.01.01 15.76 0 12 0zm0 2c3.16 0 3.42.01 4.64.07 1.21.07 1.96.26 2.6.63.65.37 1.16.88 1.53 1.53.37.65.56 1.39.63 2.6.06 1.22.07 1.48.07 4.64s-.01 3.42-.07 4.64c-.07 1.21-.26 1.96-.63 2.6-.37.65-.88 1.16-1.53 1.53-.65.37-1.39.56-2.6.63C15.42 21.99 15.16 22 12 22s-3.42-.01-4.64-.07c-1.21-.07-1.96-.26-2.6-.63-.65-.37-1.16-.88-1.53-1.53-.37-.65-.56-1.39-.63-2.6C2.01 15.42 2 15.16 2 12s.01-3.42.07-4.64c.07-1.21.26-1.96.63-2.6.37-.65.88-1.16 1.53-1.53C4.58 2.26 5.33 2.07 6.54 2.01 7.76 1.95 8.01 2 12 2zm0 5.75c-3.08 0-5.56 2.49-5.56 5.56S8.92 19.88 12 19.88s5.56-2.49 5.56-5.56S15.08 7.75 12 7.75zm0 9.19c-2.32 0-4.19-1.88-4.19-4.19s1.88-4.19 4.19-4.19 4.19 1.88 4.19 4.19-1.88 4.19-4.19 4.19z"/></svg>